<?xml version="1.0" standalone="no"?>
<!DOCTYPE svg PUBLIC "-//W3C//DTD SVG 20010904//EN"
 "http://www.w3.org/TR/2001/REC-SVG-20010904/DTD/svg10.dtd">
<svg version="1.0" xmlns="http://www.w3.org/2000/svg"
 width="300.000000pt" height="225.000000pt" viewBox="0 0 300.000000 225.000000"
 preserveAspectRatio="xMidYMid meet">
<metadata>
Created by potrace 1.10, written by Peter Selinger 2001-2011
</metadata>
<g transform="translate(0.000000,225.000000) scale(0.100000,-0.100000)"
fill="#000000" stroke="none">
<path d="M1375 1880 c-101 -13 -169 -34 -225 -70 -28 -18 -50 -34 -50 -37 0
-5 5 -2 63 35 22 13 41 21 45 18 3 -3 10 -2 16 3 26 20 149 36 273 36 73 0
129 3 124 8 -12 12 -169 16 -246 7z"/>
<path d="M1331 1835 c-19 -9 -41 -13 -48 -11 -7 3 -13 1 -13 -5 0 -6 -6 -9
-14 -6 -8 3 -16 3 -18 -2 -2 -4 -34 -20 -72 -36 -80 -34 -163 -105 -221 -190
-37 -54 -65 -71 -31 -19 10 14 16 27 14 30 -5 5 -78 -120 -78 -132 1 -5 10 8
21 29 35 67 32 32 -4 -39 -19 -38 -42 -103 -51 -144 -18 -85 -31 -220 -17
-180 7 19 9 10 9 -40 -1 -57 -2 -60 -8 -25 l-7 40 -2 -43 c-1 -58 26 -187 51
-237 11 -22 39 -59 61 -82 23 -24 37 -43 31 -43 -6 0 -21 11 -34 25 -12 13
-27 22 -33 18 -6 -3 -7 -1 -3 6 4 6 -2 23 -13 37 -11 14 -27 49 -37 77 -9 29
-23 59 -31 67 -9 10 -6 -8 10 -50 39 -104 54 -137 66 -144 6 -4 11 -12 11 -17
0 -6 -4 -7 -10 -4 -16 10 -11 -1 7 -16 9 -8 14 -9 10 -3 -4 7 -1 14 7 17 8 3
16 -2 19 -13 7 -29 47 -48 112 -54 52 -5 55 -4 22 4 -48 13 -98 38 -94 49 1 5
-15 27 -36 50 -21 23 -35 46 -31 53 4 6 3 8 -3 5 -7 -4 -11 2 -11 16 0 12 -7
54 -16 92 -31 137 -18 347 31 505 19 61 89 174 103 165 5 -3 12 0 16 6 4 8 3
9 -4 5 -25 -15 -10 12 26 47 41 40 67 51 36 15 -18 -21 -17 -21 8 1 15 13 26
28 25 34 -1 5 4 12 12 15 9 3 11 0 6 -8 -5 -9 -4 -11 4 -6 6 4 9 11 6 16 -8
12 33 33 47 24 6 -4 8 -3 4 4 -4 6 18 18 57 31 153 51 297 64 415 36 151 -36
324 -161 397 -287 36 -64 42 -61 9 3 -48 96 -136 175 -279 251 -38 21 -61 37
-50 35 11 -2 56 -23 100 -47 96 -53 211 -163 244 -234 20 -44 81 -217 85 -241
1 -5 5 -16 10 -23 20 -33 30 -205 18 -324 -7 -67 -10 -123 -8 -125 7 -7 27 99
33 178 7 91 -8 203 -48 358 -45 173 -97 258 -215 351 -71 56 -192 126 -201
117 -3 -4 -14 -2 -24 3 -12 7 -19 6 -21 -2 -3 -7 -10 -8 -17 -4 -11 7 -11 10
-1 16 9 5 5 8 -11 9 -13 0 -85 3 -159 6 -110 4 -141 3 -169 -10z m-510 -620
c-5 -33 -9 -46 -10 -30 -1 36 11 114 16 100 1 -6 -1 -37 -6 -70z m33 -375 c5
-18 4 -21 -3 -10 -13 21 -41 133 -40 161 0 13 9 -10 18 -51 10 -41 21 -86 25
-100z"/>
<path d="M1350 1774 c-36 -8 -93 -27 -127 -43 -34 -16 -65 -26 -69 -23 -4 4
-4 1 0 -5 4 -7 2 -14 -3 -14 -6 -1 -15 -2 -20 -3 -5 0 -13 -5 -18 -10 -5 -5
-2 -6 7 -2 8 4 6 1 -4 -8 -10 -8 -22 -13 -26 -11 -4 2 -20 -9 -35 -25 -16 -17
-25 -30 -20 -30 5 0 -3 -12 -17 -27 -38 -40 -95 -138 -114 -197 -9 -28 -21
-56 -25 -62 -5 -6 -7 -19 -3 -28 3 -9 2 -16 -4 -16 -5 0 -10 -10 -10 -22 0
-13 -4 -45 -8 -72 -10 -67 14 -273 32 -280 8 -3 14 -11 14 -18 0 -9 -3 -9 -11
2 -8 11 -9 5 -4 -25 14 -94 114 -174 219 -176 42 -1 46 -3 26 -9 -17 -6 -1 -8
51 -7 43 1 75 5 73 9 -2 4 0 9 6 13 23 14 6 20 -62 21 -40 0 -91 3 -113 6 -22
3 -46 6 -52 7 -20 2 -92 71 -111 105 -8 17 -17 47 -18 66 -1 19 -7 79 -13 134
-22 195 45 416 163 536 24 25 42 48 39 53 -2 4 -1 6 4 5 4 -2 9 1 10 6 3 14
74 58 126 78 65 25 178 48 233 48 34 0 43 3 38 13 -6 8 -3 8 9 -1 10 -8 25
-11 39 -7 13 4 20 4 15 -1 -4 -4 25 -16 65 -26 40 -10 98 -31 130 -46 31 -16
54 -24 51 -18 -4 6 28 -26 71 -69 57 -59 88 -101 117 -160 42 -86 48 -92 24
-24 -9 24 -13 49 -10 57 2 7 1 11 -3 8 -5 -3 -16 11 -26 31 -41 87 -155 203
-204 208 -9 1 -39 12 -67 24 -61 28 -179 51 -248 50 -29 -1 -81 -7 -117 -15z"/>
<path d="M1425 1732 c-22 -2 -45 -8 -52 -14 -7 -5 -16 -7 -22 -4 -14 9 -136
-38 -182 -69 -57 -40 -151 -144 -187 -206 -40 -72 -74 -183 -63 -211 6 -18 9
-14 14 25 9 63 57 167 108 230 119 151 282 225 469 214 261 -15 426 -155 514
-435 20 -63 25 -97 22 -140 -4 -44 -3 -49 3 -22 6 26 9 8 9 -70 1 -71 -5 -127
-17 -174 -17 -66 -17 -68 0 -45 41 54 65 196 54 312 -6 65 -9 75 -23 70 -14
-5 -15 -3 -4 8 6 7 12 20 12 29 0 13 -2 13 -11 0 -8 -11 -9 -7 -5 18 3 18 2
31 -3 28 -5 -3 -12 6 -16 22 -13 52 -63 147 -109 208 -116 154 -314 242 -511
226z m652 -719 c-2 -32 -3 -6 -3 57 0 63 1 89 3 58 2 -32 2 -84 0 -115z"/>
<path d="M1335 1650 c-125 -52 -176 -84 -234 -145 -128 -137 -174 -327 -120
-500 11 -37 22 -65 24 -63 2 2 -3 26 -11 53 -21 69 -21 216 0 285 14 47 78
160 90 160 3 0 -11 -26 -30 -57 -19 -32 -41 -80 -49 -107 -19 -65 -19 -202 0
-277 9 -33 13 -65 9 -71 -5 -7 -3 -8 6 -3 9 5 10 2 6 -11 -3 -11 -1 -26 5 -34
8 -12 9 -9 4 10 -5 21 -4 22 5 7 6 -9 8 -22 5 -27 -10 -17 6 -34 17 -19 7 10
8 9 4 -5 -4 -11 0 -26 10 -37 19 -21 40 -26 28 -7 -4 7 -3 8 5 4 6 -4 9 -11 6
-16 -2 -4 9 -13 25 -20 17 -7 29 -14 27 -17 -2 -2 -28 8 -58 22 -30 14 -50 25
-46 25 4 0 -3 15 -17 33 -30 39 -53 90 -77 172 -15 52 -18 55 -18 26 -1 -39
25 -143 45 -183 25 -48 85 -97 137 -113 58 -17 111 -20 102 -5 -3 5 0 7 8 4 8
-3 18 -1 21 4 3 5 -22 16 -55 26 -81 22 -138 78 -163 161 -10 33 -21 63 -23
68 -2 4 -6 39 -9 79 -5 91 10 189 41 255 13 28 21 54 18 57 -8 8 83 121 124
154 127 99 287 126 444 74 87 -28 209 -107 209 -134 0 -6 -18 6 -40 26 -99 89
-272 139 -401 116 -77 -14 -151 -48 -199 -90 l-35 -31 35 24 c61 43 120 68
142 61 11 -3 18 -2 15 3 -9 14 171 15 228 2 28 -6 77 -25 109 -41 61 -31 178
-132 174 -152 0 -6 13 -41 31 -78 47 -97 72 -228 69 -365 -1 -61 -6 -109 -10
-107 -4 3 -5 -1 -2 -9 3 -8 0 -18 -7 -23 -8 -5 -10 -3 -4 6 5 9 4 11 -4 6 -6
-4 -9 -12 -6 -17 4 -5 -6 -20 -22 -33 -15 -13 -24 -28 -20 -32 4 -4 24 8 43
27 59 59 87 206 67 345 l-8 49 -7 -40 c-5 -29 -6 -22 -3 25 3 46 1 59 -6 45
-7 -16 -8 -13 -4 13 3 20 1 31 -5 27 -11 -7 -11 -6 -14 45 -6 84 -129 261
-219 313 -66 39 -169 66 -270 72 -78 4 -100 2 -142 -15z m591 -316 c15 -25 25
-47 23 -49 -2 -2 -19 21 -36 51 -18 30 -28 52 -23 49 5 -3 22 -26 36 -51z m81
-346 c-2 -18 -4 -4 -4 32 0 36 2 50 4 33 2 -18 2 -48 0 -65z"/>
<path d="M209 1640 c34 -8 54 -27 45 -42 -3 -4 -2 -13 2 -20 9 -14 25 37 18
56 -2 6 -25 12 -52 13 -44 1 -45 0 -13 -7z"/>
<path d="M1362 1563 c-47 -10 -10 -20 40 -11 88 16 275 -27 301 -69 5 -7 13
-10 19 -7 7 5 8 2 3 -6 -6 -9 -4 -11 5 -5 8 5 11 4 7 -2 -4 -6 0 -16 8 -23 12
-10 15 -10 15 2 0 18 -34 51 -43 41 -4 -3 -7 -1 -7 6 0 7 -30 26 -67 43 -59
27 -81 32 -163 34 -52 1 -105 0 -118 -3z"/>
<path d="M255 1503 c7 -77 15 -80 14 -5 -1 34 -6 62 -11 62 -4 0 -6 -25 -3
-57z"/>
<path d="M1550 1525 c184 -53 293 -216 316 -476 10 -116 -7 -173 -68 -230
l-50 -46 31 2 c42 2 81 32 106 81 17 34 20 58 19 179 0 125 -3 149 -28 223
-15 46 -36 92 -46 102 -10 10 -16 21 -13 23 2 3 -5 10 -16 17 -12 6 -19 15
-15 21 4 6 12 5 22 -3 10 -7 6 0 -7 15 -14 15 -27 27 -29 27 -3 0 -2 -3 1 -7
4 -3 2 -12 -4 -20 -9 -10 -18 -7 -47 19 -46 40 -124 75 -182 83 -45 5 -45 5
10 -10z m232 -98 c-12 -14 10 -52 23 -39 5 4 5 2 2 -4 -4 -6 7 -36 24 -67 57
-105 82 -356 45 -445 -18 -42 -67 -92 -89 -92 -7 0 2 9 19 19 55 34 69 79 69
226 -1 150 -20 230 -80 329 -27 45 -33 62 -24 72 6 8 14 14 16 14 3 0 1 -6 -5
-13z"/>
<path d="M1345 1520 c17 -9 15 -10 -10 -6 -26 4 -85 -17 -85 -30 0 -2 13 2 30
11 16 8 33 15 37 15 4 -1 -8 -9 -27 -19 -19 -11 -38 -17 -43 -14 -4 2 -19 -5
-33 -16 -35 -28 -52 -27 -28 2 10 12 2 6 -19 -12 -36 -34 -52 -56 -22 -31 9 8
15 9 15 2 0 -12 -19 -27 -35 -27 -5 0 -10 -7 -10 -15 0 -8 -10 -34 -23 -57
-28 -53 -40 -127 -22 -138 9 -6 10 1 5 26 -5 27 -4 31 5 19 9 -12 10 -9 6 13
-6 25 25 107 40 107 2 0 0 -9 -6 -21 -21 -39 -4 -29 28 16 38 54 40 65 10 39
-21 -17 -21 -16 1 9 24 27 38 36 26 17 -12 -19 8 -10 43 21 44 39 128 79 162
78 23 -1 22 -2 -5 -8 -94 -24 -218 -128 -263 -222 -33 -68 -44 -153 -32 -239
11 -80 42 -159 71 -186 27 -24 24 -5 -10 59 -103 196 -28 440 163 536 26 13
66 26 89 29 23 3 45 10 49 16 5 8 8 7 8 -1 0 -8 13 -13 33 -13 46 0 149 -53
188 -98 71 -81 115 -241 107 -387 -5 -76 -4 -78 8 -40 19 62 17 193 -5 264
-10 33 -15 58 -10 55 16 -10 9 11 -17 51 -42 63 -115 134 -151 146 -18 6 -33
15 -33 19 0 5 -7 7 -15 4 -8 -4 -15 -1 -15 6 0 6 -5 8 -12 3 -21 -13 -47 -13
-54 -1 -5 7 -2 9 8 6 8 -4 21 -2 28 2 8 5 -14 8 -51 7 -35 -1 -82 1 -104 5
-29 6 -35 5 -20 -2z"/>
<path d="M2036 1464 c60 -136 99 -365 83 -484 -10 -67 -42 -174 -50 -166 -2 2
-15 -10 -28 -27 -13 -18 -42 -47 -64 -65 -42 -35 -35 -41 19 -16 80 38 155
169 160 279 2 48 1 61 -5 40 -6 -24 -9 -12 -13 55 -8 114 -12 144 -38 236 -22
77 -74 204 -84 204 -3 0 6 -25 20 -56z"/>
<path d="M1450 1460 c116 -12 206 -69 260 -163 17 -29 30 -47 30 -42 0 21 -61
114 -92 140 -59 50 -126 75 -198 73 l-65 -1 65 -7z"/>
<path d="M1447 1430 c22 -5 58 -17 80 -28 40 -21 156 -139 148 -151 -2 -4 0
-21 5 -37 6 -22 9 -24 10 -9 1 20 2 20 9 1 7 -19 8 -19 13 2 4 12 2 20 -3 16
-5 -3 -9 0 -9 6 0 6 -5 8 -12 4 -8 -5 -9 -2 -5 10 7 19 -33 84 -74 123 -39 35
-101 62 -154 68 l-50 4 42 -9z"/>
<path d="M1322 1413 c-6 -3 -10 -8 -8 -12 3 -3 -10 -14 -27 -24 l-32 -17 24
20 c13 11 18 20 12 20 -6 0 -32 -19 -56 -41 -32 -29 -44 -47 -40 -60 3 -9 1
-20 -4 -24 -7 -4 -8 1 -4 11 4 12 3 15 -6 10 -7 -5 -9 -16 -5 -28 3 -11 2 -18
-2 -15 -5 3 -10 -5 -10 -16 -1 -12 -7 -48 -13 -80 -19 -93 4 -215 54 -281 7
-10 19 -15 25 -11 8 5 5 12 -9 22 -70 49 -86 242 -31 359 56 115 182 173 286
129 36 -15 108 -66 132 -95 11 -13 11 -12 2 7 -5 12 -15 25 -20 28 -6 4 -7 11
-4 17 4 6 3 8 -2 5 -6 -3 -30 8 -54 24 -25 17 -57 33 -72 36 -15 3 -26 9 -23
13 3 4 -12 4 -32 0 -20 -5 -44 -5 -52 -1 -9 5 -22 6 -29 4z"/>
<path d="M1865 1351 c14 -29 24 -60 21 -68 -3 -8 -1 -11 4 -8 18 11 62 -191
58 -270 -1 -27 -2 -26 -9 10 -6 31 -7 24 -4 -30 3 -49 1 -64 -5 -50 -8 15 -9
12 -4 -14 4 -23 3 -31 -5 -27 -7 4 -9 1 -5 -8 6 -15 -27 -71 -56 -93 -8 -7
-10 -13 -4 -13 6 0 21 11 34 25 12 13 27 22 31 19 5 -3 6 3 2 12 -4 12 -3 15
5 10 8 -5 10 -1 5 10 -3 10 -2 15 3 12 21 -14 22 239 1 325 -16 65 -67 181
-89 202 -5 6 2 -14 17 -44z"/>
<path d="M1232 1267 c-34 -41 -68 -216 -45 -230 5 -3 7 9 5 28 -5 43 15 129
40 174 20 34 19 52 0 28z"/>
<path d="M943 1145 c0 -44 2 -61 4 -37 2 23 2 59 0 80 -2 20 -4 1 -4 -43z"/>
<path d="M1651 1213 c-1 -6 4 -24 10 -40 6 -15 14 -57 19 -93 7 -63 7 -64 8
-15 1 43 -34 182 -37 148z"/>
<path d="M906 1077 c1 -134 8 -196 27 -232 6 -11 10 -25 9 -31 -4 -18 112
-103 124 -91 2 2 -14 17 -36 32 -22 15 -40 31 -40 36 0 4 -8 10 -18 13 -10 3
-18 14 -19 23 -1 10 -9 38 -19 63 -15 36 -18 70 -16 169 1 68 -2 129 -6 137
-4 7 -7 -47 -6 -119z"/>
<path d="M1044 1107 c-1 -113 1 -114 14 -12 7 49 6 77 -2 92 -9 18 -11 2 -12
-80z"/>
<path d="M1723 1198 c-10 -16 -13 -222 -3 -211 4 4 10 46 12 93 3 47 2 74 -2
60 l-8 -25 -1 28 c-1 16 4 37 9 48 12 21 6 26 -7 7z"/>
<path d="M1819 1070 c-4 -84 -9 -114 -28 -151 -13 -26 -21 -53 -19 -60 2 -7
15 8 27 34 27 56 40 151 31 227 -5 49 -6 44 -11 -50z"/>
<path d="M761 1142 c-6 -12 -7 -30 -1 -48 6 -22 9 -24 10 -9 1 11 4 32 6 48 5
31 -1 35 -15 9z"/>
<path d="M1741 1050 c-2 -73 -21 -136 -39 -133 -6 2 -9 -3 -6 -11 7 -19 -39
-46 -81 -46 -19 0 -35 -4 -35 -10 0 -17 63 -11 102 9 24 12 38 15 41 8 2 -6 6
-3 10 7 4 10 3 15 -3 11 -13 -8 -13 -2 6 54 9 30 14 71 11 112 l-3 64 -3 -65z"/>
<path d="M770 1045 c-1 -11 -3 -31 -6 -45 -4 -24 10 -59 20 -50 2 3 1 30 -4
60 -4 30 -8 46 -10 35z"/>
<path d="M2041 955 c-2 -43 -33 -128 -62 -169 -33 -49 -83 -74 -151 -77 -32
-1 -61 0 -65 4 -3 4 20 7 53 7 61 0 103 14 74 24 -27 9 -135 -18 -135 -34 0
-12 16 -15 77 -15 45 0 72 3 65 8 -7 5 -4 6 9 2 27 -7 75 31 98 79 23 48 48
153 43 179 -3 17 -5 15 -6 -8z"/>
<path d="M2220 948 c0 -68 -52 -214 -97 -275 -27 -37 -20 -42 17 -13 14 11 19
20 12 20 -9 0 -4 11 12 31 14 17 26 37 26 44 0 7 7 21 16 29 8 9 12 21 8 27
-3 6 -1 15 6 19 16 10 26 150 11 150 -6 0 -11 -15 -11 -32z"/>
<path d="M1095 935 c11 -52 44 -111 69 -125 16 -8 35 -10 53 -5 l28 8 -35 7
c-51 9 -59 16 -92 84 -18 37 -27 49 -23 31z"/>
<path d="M2116 814 c-16 -30 -47 -71 -70 -91 -35 -30 -37 -34 -16 -28 19 5 21
4 10 -4 -8 -6 -26 -7 -39 -4 -18 4 -22 3 -16 -7 6 -10 -2 -12 -42 -6 -28 3
-62 2 -75 -3 -15 -5 -31 -5 -41 0 -14 8 -17 6 -17 -12 0 -19 4 -21 38 -15 20
4 66 10 102 15 72 9 114 26 104 43 -5 8 -1 9 10 5 9 -4 15 -3 12 2 -3 4 5 17
18 28 21 19 64 119 54 128 -2 2 -16 -21 -32 -51z"/>
<path d="M1660 819 c-19 -4 -28 -7 -20 -9 47 -7 87 -7 100 2 11 7 8 8 -12 5
-15 -2 -29 -1 -30 2 -2 3 -19 3 -38 0z"/>
<path d="M2120 746 c-14 -28 -39 -60 -56 -71 -34 -23 -42 -38 -22 -43 9 -2 8
0 -2 8 -12 10 -11 11 8 7 14 -3 20 -1 15 6 -4 7 0 8 13 3 10 -4 15 -4 12 0 -4
3 3 21 16 38 24 32 52 94 45 100 -2 1 -15 -20 -29 -48z"/>
<path d="M1173 638 c18 -6 40 -7 65 0 35 9 33 10 -28 10 -55 0 -61 -1 -37 -10z"/>
<path d="M2055 625 c-23 -11 -25 -14 -10 -14 32 -1 65 11 59 20 -7 11 -12 11
-49 -6z"/>
<path d="M1036 622 c-3 -5 7 -9 22 -9 15 -1 45 -4 67 -6 22 -3 51 -2 65 1 21
5 18 7 -20 13 -63 10 -128 11 -134 1z"/>
<path d="M2847 103 c-4 -3 -7 -14 -7 -24 0 -10 -10 -25 -22 -35 -17 -12 -18
-15 -5 -10 10 3 46 6 80 7 44 1 55 3 37 8 -14 4 -38 6 -54 4 -27 -4 -29 -3
-23 26 7 32 5 36 -6 24z"/>
</g>
</svg>
